<?xml version="1.0" encoding="utf-8"?>
<!-- Generator: Adobe Illustrator 19.0.0, SVG Export Plug-In . SVG Version: 6.00 Build 0)  -->
<svg version="1.1" id="Calque_1" xmlns="http://www.w3.org/2000/svg" xmlns:xlink="http://www.w3.org/1999/xlink" x="0px" y="0px"
	 width="15.3px" height="11px" viewBox="-293.3 415.9 15.3 11" style="enable-background:new -293.3 415.9 15.3 11;"
	 xml:space="preserve">
<style type="text/css">
	.st0{fill:#E3001B;}
</style>
<path class="st0" d="M-279.7,420.6c-0.1-0.5-0.7-0.9-1.2-0.8l-3.3,0.5l1.2-3.1c0,0,0-0.1,0-0.1c0.2-0.5-0.1-1.1-0.6-1.3
	c-0.5-0.2-1.1,0.1-1.3,0.6l-1.1,2.7l-1.5-2.5c-0.3-0.5-0.9-0.6-1.4-0.3s-0.6,0.9-0.3,1.4l1.8,3l-3.5,0.6c0,0-0.1,0-0.1,0
	c-0.5,0.1-0.9,0.7-0.8,1.2s0.7,0.9,1.2,0.8l3.1-0.5l-0.8,2.1c0,0,0,0.1,0,0.1c-0.2,0.5,0.1,1.1,0.6,1.3c0.5,0.2,1.1-0.1,1.3-0.6
	l0.7-1.9l1.6,2.6c0.3,0.5,0.9,0.6,1.4,0.3s0.6-0.9,0.3-1.4l-1.8-3l3.5-0.6c0,0,0.1,0,0.1,0C-279.9,421.7-279.6,421.1-279.7,420.6z"
	/>
</svg>
